<?xml version="1.0" encoding="UTF-8"?>
<svg width="72px" height="72px" viewBox="0 0 72 72" version="1.1" xmlns="http://www.w3.org/2000/svg" xmlns:xlink="http://www.w3.org/1999/xlink">
    <!-- Generator: sketchtool 49 (51002) - http://www.bohemiancoding.com/sketch -->
    <title>8010273E-B06C-4AC3-943F-40512920997B</title>
    <desc>Created with sketchtool.</desc>
    <defs></defs>
    <g id="Page-1" stroke="none" stroke-width="1" fill="none" fill-rule="evenodd">
        <g id="chat" transform="translate(-828.000000, -114.000000)" fill="#FFFFFF">
            <g id="appbar">
                <g id="appbar_btn_viewPlay_s" transform="translate(828.000000, 114.000000)">
                    <g id="appbar_btn_viewPlay">
                        <g id="ic_viewPlay">
                            <g transform="translate(1.000000, 16.000000)">
                                <path d="M62.085,40.5547 L47.164,31.6027 C46.392,31.1397 45.431,31.1267 44.646,31.5707 C43.862,32.0137 43.378,32.8457 43.378,33.7457 L43.378,51.6507 C43.378,52.5517 43.862,53.3827 44.646,53.8257 C45.029,54.0427 45.454,54.1507 45.878,54.1507 C46.323,54.1507 46.769,54.0317 47.164,53.7947 L62.085,44.8417 C62.838,44.3897 63.299,43.5757 63.299,42.6987 C63.299,41.8197 62.838,41.0067 62.085,40.5547" id="Fill-1"></path>
                                <path d="M2.5,5 L49.792,5 C51.173,5 52.292,3.881 52.292,2.5 C52.292,1.119 51.173,0 49.792,0 L2.5,0 C1.119,0 0,1.119 0,2.5 C0,3.881 1.119,5 2.5,5" id="Fill-3"></path>
                                <path d="M2.5,22.5161 L49.792,22.5161 C51.173,22.5161 52.292,21.3971 52.292,20.0161 C52.292,18.6351 51.173,17.5161 49.792,17.5161 L2.5,17.5161 C1.119,17.5161 0,18.6351 0,20.0161 C0,21.3971 1.119,22.5161 2.5,22.5161" id="Fill-5"></path>
                                <path d="M32.2769,35.0318 L2.4999,35.0318 C1.1189,35.0318 -0.0001,36.1508 -0.0001,37.5318 C-0.0001,38.9128 1.1189,40.0318 2.4999,40.0318 L32.2769,40.0318 C33.6579,40.0318 34.7769,38.9128 34.7769,37.5318 C34.7769,36.1508 33.6579,35.0318 32.2769,35.0318" id="Fill-7"></path>
                            </g>
                        </g>
                    </g>
                </g>
            </g>
        </g>
    </g>
</svg>